# xmcd
#
# Track frame offsets:
#	150
#	11969
#	27525
#	38022
#	49698
#	65428
#	78063
#	90878
#	104873
#	120688
#	133489
#	144188
#	155597
#	168485
#	179612
#
# Disc length: 2542 seconds
#
# Revision: 1
# Processed by: cddbd v1.5.1PL2 Copyright (c) Steve Scherf et al.
# Submitted via: audiograbber 1.83.01
#
DISCID=cd09ec0f
DTITLE=Doreen - The Hits Of Patsy Cline
DYEAR=2002
DGENRE=Country
TTITLE0=Never No More
TTITLE1=Sweet dreams
TTITLE2=I Love You Honey
TTITLE3=Walking After Midnight
TTITLE4=She's Got You
TTITLE5=Bill Bailey
TTITLE6=Crazy
TTITLE7=Who's Sorry Now
TTITLE8=Why Can't He Be You
TTITLE9=Blue Moon Of Kentucky
TTITLE10=I Cried All The Way To The Altar
TTITLE11=Just Out Of Reach
TTITLE12=I Fall To Pieces
TTITLE13=Half As Much
TTITLE14=If You Got Leavin' On Your Mind
EXTD=
EXTT0=
EXTT1=
EXTT2=
EXTT3=
EXTT4=
EXTT5=
EXTT6=
EXTT7=
EXTT8=
EXTT9=
EXTT10=
EXTT11=
EXTT12=
EXTT13=
EXTT14=
PLAYORDER=
